<?xml version="1.0"?>
<svg xmlns="http://www.w3.org/2000/svg" viewBox="0 0 64 64" width="512" height="512"><g id="Outline"><path d="M32,2A22.159,22.159,0,0,0,10,24.267c0,7.84,3.6,16.542,10.7,25.86A86.428,86.428,0,0,0,31.342,61.753a1,1,0,0,0,1.316,0A86.428,86.428,0,0,0,43.3,50.127C50.4,40.809,54,32.107,54,24.267A22.159,22.159,0,0,0,32,2Zm0,57.646c-3.527-3.289-20-19.5-20-35.379a20,20,0,1,1,40,0C52,40.147,35.527,56.357,32,59.646Z"/><path d="M32,6A18,18,0,1,0,50,24,18.021,18.021,0,0,0,32,6Zm0,34A16,16,0,1,1,48,24,16.019,16.019,0,0,1,32,40Z"/><path d="M40,22a4.937,4.937,0,0,0-1.74.33L36.7,19.835,38.618,16H40a1,1,0,0,1,0,2H38v2h2a3,3,0,0,0,0-6H38a1,1,0,0,0-.9.553L35.382,18H28.618l-1-2H30V14H24v2h1.382l1.5,3-1.6,3.189A4.93,4.93,0,0,0,24,22a5,5,0,1,0,4.9,6H32a1,1,0,0,0,.9-.553l2.758-5.516.91,1.456A4.986,4.986,0,1,0,40,22ZM24,30a3,3,0,0,1,0-6,2.9,2.9,0,0,1,.363.037l-1.258,2.516A1,1,0,0,0,24,28h2.816A3,3,0,0,1,24,30Zm1.618-4,.538-1.077A3.005,3.005,0,0,1,26.816,26ZM28.9,26a4.988,4.988,0,0,0-1.824-2.913L28,21.236,30.382,26ZM32,24.764,29.618,20h4.764ZM40,30a2.983,2.983,0,0,1-2.339-4.856l1.491,2.386a1,1,0,0,0,1.7-1.06l-1.5-2.395A3,3,0,1,1,40,30Z"/></g></svg>
