<?xml version="1.0" standalone="no"?>
<!DOCTYPE svg PUBLIC "-//W3C//DTD SVG 20010904//EN"
 "http://www.w3.org/TR/2001/REC-SVG-20010904/DTD/svg10.dtd">
<svg version="1.0" xmlns="http://www.w3.org/2000/svg"
 width="840.000000pt" height="700.000000pt" viewBox="0 0 840.000000 700.000000"
 preserveAspectRatio="xMidYMid meet">

<g transform="translate(0.000000,700.000000) scale(0.100000,-0.100000)"
fill="#000000" stroke="none">
<path d="M5441 6574 c-130 -35 -245 -111 -318 -209 l-47 -64 -27 22 c-15 12
-68 57 -118 99 -126 107 -155 121 -269 126 -184 9 -240 -31 -315 -224 -56
-142 -58 -174 -18 -215 40 -40 103 -40 204 1 109 44 182 61 277 66 79 5 89 3
135 -23 l50 -28 6 -125 c7 -135 16 -175 59 -260 l28 -55 -75 -95 c-41 -52 -92
-109 -114 -127 -22 -17 -205 -117 -407 -221 -202 -104 -450 -235 -552 -290
-102 -55 -288 -149 -415 -208 -126 -60 -250 -122 -275 -139 -58 -39 -104 -116
-120 -202 -27 -140 2 -291 159 -841 114 -395 157 -568 180 -722 25 -169 41
-379 40 -535 l0 -120 -23 110 c-138 660 -629 1151 -1296 1297 -92 20 -132 23
-330 22 -194 0 -239 -3 -326 -22 -663 -144 -1151 -635 -1296 -1302 -19 -91
-22 -133 -22 -320 0 -241 13 -330 80 -530 139 -419 462 -780 867 -970 537
-252 1175 -194 1660 151 339 241 584 618 663 1021 l16 83 100 -3 c76 -3 111 0
143 13 71 26 120 69 149 126 26 52 26 57 26 255 l0 202 88 53 c399 239 785
483 990 626 233 162 300 246 289 363 -3 32 -13 73 -23 90 -11 19 -125 114
-274 229 -294 227 -777 598 -897 689 -46 35 -83 65 -83 67 0 12 117 61 325
135 298 106 460 176 501 217 21 21 41 58 58 111 15 43 37 89 50 101 l24 22 58
-84 c33 -47 111 -163 176 -259 252 -376 566 -841 664 -986 57 -84 104 -156
104 -161 0 -4 -21 -16 -47 -26 -198 -74 -435 -238 -600 -416 -146 -155 -286
-393 -353 -596 -158 -480 -91 -1005 184 -1428 371 -571 1069 -858 1735 -714
485 105 898 424 1126 871 230 449 238 997 21 1453 -85 178 -168 296 -315 449
-236 242 -513 394 -854 468 -86 18 -134 22 -307 22 -113 1 -229 -1 -258 -4
l-54 -5 -282 495 c-665 1165 -646 1131 -646 1171 0 30 10 51 49 101 27 35 54
62 60 60 221 -51 421 5 576 162 114 115 169 250 168 411 -1 272 -183 503 -448
570 -74 19 -213 18 -284 -1z m-1446 -2738 c127 -84 267 -177 313 -205 137 -86
432 -282 438 -293 8 -12 17 -6 -325 -225 -341 -218 -513 -323 -522 -317 -3 2
-9 33 -13 68 -3 36 -33 239 -66 453 -59 387 -100 673 -100 694 0 7 9 5 23 -5
12 -9 126 -85 252 -170z m-1904 -522 c276 -46 546 -187 744 -389 601 -610 497
-1614 -216 -2091 -230 -154 -473 -227 -754 -227 -381 0 -720 144 -981 416
-147 152 -242 305 -307 493 -61 174 -72 246 -72 459 1 172 3 200 27 295 101
401 331 705 682 899 106 58 296 125 417 145 117 19 344 20 460 0z m4729 -9
c260 -57 477 -174 666 -357 275 -267 416 -599 416 -983 -1 -462 -224 -876
-617 -1139 -137 -92 -298 -157 -487 -197 -140 -29 -369 -30 -513 -1 -566 114
-992 548 -1090 1112 -22 123 -22 326 -1 455 33 197 121 408 243 577 74 103
237 259 345 331 159 106 340 178 533 212 107 19 401 13 505 -10z"/>
</g>
</svg>
